<svg id="Capa_1" enable-background="new 0 0 512 512" height="512" viewBox="0 0 512 512" width="512" xmlns="http://www.w3.org/2000/svg"><g><path d="m512 15c0-4.445-1.972-8.661-5.383-11.511s-7.909-4.041-12.285-3.25l-332 60c-7.139 1.291-12.332 7.506-12.332 14.761v97.954l362-65.422z"/><g><path d="m150 354.981c-15.935-14.281-36.969-22.981-60-22.981-49.626 0-90 40.374-90 90s40.374 90 90 90 90-40.374 90-90v-223.981l-30 5.422z"/><path d="m482 309.981c-15.935-14.281-36.969-22.981-60-22.981-49.626 0-90 40.374-90 90s40.374 90 90 90 90-40.374 90-90v-238.981l-30 5.422z"/></g></g></svg>